{"title":"WWE.Friday.Night.Smackdown.2012.02.03.HDTV.XviD-vasylius[BRGTV]","uid":7006055,"size":872802434,"categoryP":"video","categoryS":"tv_shows","magnet":"?xt=urn:btih:7cbfab2c9ffa4e7933f1b0c38ff24f85249df54b&amp;dn=WWE.Friday.Night.Smackdown.2012.02.03.HDTV.XviD-vasylius%5BBRGTV%5D+&amp;tr=udp%3A%2F%2Ftracker.openbittorrent.com%3A80&amp;tr=udp%3A%2F%2Fopen.demonii.com%3A1337&amp;tr=udp%3A%2F%2Ftracker.coppersurfer.tk%3A6969&amp;tr=udp%3A%2F%2Fexodus.desync.com%3A6969","seeders":1,"leechers":0,"uploader":"MScope40","files":3,"time":1328229401,"description":"Format : AVI\nFormat/Info : Audio Video Interleave\nFile size : 832 MiB\nDuration : 1h 27mn\nOverall bit rate : 1 336 Kbps\n\nVideo\nID : 0\nFormat : MPEG-4 Visual\nFormat profile : Advanced Simple@L5\nFormat settings, BVOP : 2\nFormat settings, QPel : No\nFormat settings, GMC : No warppoints\nFormat settings, Matrix : Default (H.263)\nMuxing mode : Packed bitstream\nCodec ID : XVID\nCodec ID/Hint : XviD\nDuration : 1h 27mn\nBit rate : 1 199 Kbps\nWidth : 624 pixels\nHeight : 352 pixels\nDisplay aspect ratio : 16:9\nFrame rate : 25.000 fps\nColor space : YUV\nChroma subsampling : 4:2:0\nBit depth : 8 bits\nScan type : Progressive\nCompression mode : Lossy\nBits/(Pixel*Frame) : 0.218\nStream size : 747 MiB (90%)\nWriting library : XviD 1.2.1 (UTC 2008-12-04)\n\nAudio\nID : 1\nFormat : AC-3\nFormat/Info : Audio Coding 3\nMode extension : CM (complete main)\nCodec ID : 2000\nDuration : 1h 27mn\nBit rate mode : Constant\nBit rate : 128 Kbps\nChannel(s) : 2 channels\nChannel positions : Front: L R\nSampling rate : 48.0 KHz\nBit depth : 16 bits\nCompression mode : Lossy\nStream size : 79.7 MiB (10%)\nAlignment : Aligned on interleaves\nInterleave, duration : 40 ms (1.00 video frame)\n &lt;a href=&quot;\nhttp://s7.directupload.net/images/120203/sq3xjfmb.png&quot; rel=&quot;nofollow&quot; target=&quot;_NEW&quot;&gt;\nhttp://s7.directupload.net/images/120203/sq3xjfmb.png&lt;/a&gt;","torrent":{"xt":"urn:btih:7cbfab2c9ffa4e7933f1b0c38ff24f85249df54b","amp;dn":"WWE.Friday.Night.Smackdown.2012.02.03.HDTV.XviD-vasylius%5BBRGTV%5D+","amp;tr":["udp%3A%2F%2Ftracker.openbittorrent.com%3A80","udp%3A%2F%2Fopen.demonii.com%3A1337","udp%3A%2F%2Ftracker.coppersurfer.tk%3A6969","udp%3A%2F%2Fexodus.desync.com%3A6969"],"infoHash":"7cbfab2c9ffa4e7933f1b0c38ff24f85249df54b","infoHashBuffer":{"type":"Buffer","data":[124,191,171,44,159,250,78,121,51,241,176,195,143,242,79,133,36,157,245,75]},"announce":[],"urlList":[]}}